# xmcd
#
# Track frame offsets:
#	150
#	10380
#	22817
#	34015
#	47522
#	57082
#	68447
#	78750
#	90960
#	103357
#	113402
#	122865
#	133652
#	143835
#	156862
#	170632
#	180422
#	189282
#	200312
#	210237
#	222757
#	232275
#	240392
#	250157
#	259230
#	267882
#	278012
#	285890
#	297520
#	305162
#
# Disc length: 4233 seconds
#
# Revision: 1
# Processed by: cddbd v1.4PL0 Copyright (c) Steve Scherf et al.
# Submitted via: audiograbber 1.80
#
DISCID=9b10871e
DTITLE=Various Artist - 30 Golden Country Evergreens
DYEAR=1900
DGENRE=
TTITLE0=Freddie Fender - Before The Next Teardrop Falls
TTITLE1=Johnny Cash - Folsom Prison Blues
TTITLE2=Kenny Rogers - Me And Bobby McGee
TTITLE3=George Jones - A Good Year For The Roses
TTITLE4=Waylon Jennings - Sweet Mental Revenge
TTITLE5=Gene Autry - South Of The Border (Down Mexico Way)
TTITLE6=Jim Reeves - He'll Have To Go
TTITLE7=Boxcar Willie - 'T' For Texas (Blue Yodel No 1)
TTITLE8=Willie Nelson - Any Old Arms Won't Do
TTITLE9=Dave Dudley - Seven Lonely Days
TTITLE10=Conway Twitty - Born To Sing The Blues
TTITLE11=Ricky Skaggs - Keep My Love With You
TTITLE12=Lynn Anderson - Silver Threads And Golden Needles
TTITLE13=Tex Ritter/Eddie Dean - Four Walls
TTITLE14=Freddie Fender - Wasted Days And Wasted Nights
TTITLE15=Ned Miller - From A Jack To A King
TTITLE16=Boxcar Willie - Hank, You Still Make Me Cry
TTITLE17=Skeeter Davis - The End Of The World
TTITLE18=Billie Joe Spears - I'm So Lonesome, I Could Cry
TTITLE19=Jerry Lee Lewis - You Win Again
TTITLE20=Tammy Wynette - Stand By Your Man
TTITLE21=Willie Nelson - Slow Down, Old World
TTITLE22=George Jones - Tender Years
TTITLE23=Dave Dudley - Six Days On The Road
TTITLE24=Johnny Cash - Big River
TTITLE25=Kenny Rogers - Elvira
TTITLE26=Willie Nelson - You Wouldn't Cross The Street To Say Goodbye
TTITLE27=Frankie Laine - Answer Me
TTITLE28=Boxcar Willie - Keep On Rollin' Down The Line
TTITLE29=Jim Reeves - Distant Drums
EXTD=
EXTT0=
EXTT1=
EXTT2=
EXTT3=
EXTT4=
EXTT5=
EXTT6=
EXTT7=
EXTT8=
EXTT9=
EXTT10=
EXTT11=
EXTT12=
EXTT13=
EXTT14=
EXTT15=
EXTT16=
EXTT17=
EXTT18=
EXTT19=
EXTT20=
EXTT21=
EXTT22=
EXTT23=
EXTT24=
EXTT25=
EXTT26=
EXTT27=
EXTT28=
EXTT29=
PLAYORDER=
